# xmcd
#
# Track frame offsets: 
#        150
#        9851
#        20769
#        32451
#        49928
#        64502
#        81200
#        101847
#        113952
#        128013
#        141153
#        152147
#        163572
#        177603
#
# Disc length: 2567 seconds
#
# Revision: 0
# Processed by: cddbd v1.5.1PL0 Copyright (c) Steve Scherf et al.
# Submitted via: ExactAudioCopy v0.90b3
#
DISCID=b40a050e
DTITLE=Johnny Cash - American III: Solitary Man
DYEAR=2002
DGENRE=Country
TTITLE0=I won't back down
TTITLE1=Solitary Man
TTITLE2=That Lucky Old Sun
TTITLE3=One
TTITLE4=Nobody
TTITLE5=I see a darkness
TTITLE6=The Mercy Seat
TTITLE7=Would you lay with me
TTITLE8=Field of diamonds
TTITLE9=Before my time
TTITLE10=Country Trash
TTITLE11=Mary of the wild moor
TTITLE12=I'm leavin' new
TTITLE13=Wayfaring stranger
EXTD=
EXTT0=
EXTT1=
EXTT2=
EXTT3=
EXTT4=
EXTT5=
EXTT6=
EXTT7=
EXTT8=
EXTT9=
EXTT10=
EXTT11=
EXTT12=
EXTT13=
PLAYORDER=
